<svg height="472pt" viewBox="0 -37 472 472" width="472pt" xmlns="http://www.w3.org/2000/svg"><path d="m464 105.269531v252.191407c0 18.21875-14.078125 32.988281-31.449219 32.988281h-393.101562c-17.371094 0-31.449219-14.769531-31.449219-32.988281v-252.191407zm-119.351562 148.601563v-80.859375c0-13.089844-10.117188-23.691407-22.609376-23.691407h-130.539062c-12.488281 0-22.609375 10.601563-22.609375 23.691407v73.449219h-30.230469c-6.394531.152343-11.457031 5.457031-11.308594 11.847656v55.089844c-.148437 6.398437 4.914063 11.703124 11.308594 11.851562h16.949219l6.21875 28.441406 24.863281-28.441406h37.296875c6.394531-.152344 11.453125-5.457031 11.300781-11.851562v-35.839844h13l40.410157 46.511718 10.171875-46.511718h23.167968c12.492188 0 22.609376-10.597656 22.609376-23.6875zm0 0" fill="#00efd1"/><path d="m464 40.539062v64.730469h-456v-64.730469c0-18.21875 14.078125-32.988281 31.449219-32.988281h393.101562c17.371094 0 31.449219 14.769531 31.449219 32.988281zm-251.589844 16.5c0-12.148437-9.378906-22-20.960937-22-11.578125 0-20.96875 9.851563-20.96875 22 0 12.152344 9.390625 21.992188 20.96875 21.992188 11.582031 0 20.960937-9.851562 20.960937-21.992188zm-68.128906 0c0-12.148437-9.390625-22-20.972656-22-11.578125 0-20.96875 9.851563-20.96875 22 0 12.152344 9.390625 21.992188 20.96875 21.992188 11.582031 0 20.972656-9.851562 20.972656-21.992188zm-68.140625 0c0-12.148437-9.390625-22-20.96875-22-11.582031 0-20.960937 9.851563-20.960937 22 0 12.152344 9.378906 21.992188 20.960937 21.992188 11.578125 0 20.96875-9.851562 20.96875-21.992188zm0 0" fill="#00acea"/><path d="m235.289062 277.558594h-43.789062c-12.488281 0-22.609375-10.597656-22.609375-23.6875v-80.859375c0-13.089844 10.121094-23.691407 22.609375-23.691407h130.539062c12.492188 0 22.609376 10.601563 22.609376 23.691407v80.859375c0 13.089844-10.117188 23.6875-22.609376 23.6875h-23.167968l-10.171875 46.511718-40.410157-46.511718zm0 0" fill="#00acea"/><path d="m235.289062 277.558594v35.839844c.152344 6.394531-4.90625 11.699218-11.300781 11.851562h-37.296875l-24.863281 28.441406-6.21875-28.441406h-16.949219c-6.394531-.148438-11.457031-5.453125-11.308594-11.851562v-55.089844c-.148437-6.390625 4.914063-11.695313 11.308594-11.847656h30.230469v7.410156c0 13.089844 10.121094 23.6875 22.609375 23.6875zm0 0" fill="#fedb41"/><path d="m191.449219 35.039062c11.582031 0 20.960937 9.851563 20.960937 22 0 12.152344-9.378906 21.992188-20.960937 21.992188-11.578125 0-20.96875-9.851562-20.96875-21.992188 0-12.140624 9.390625-22 20.96875-22zm0 0" fill="#00efd1"/><path d="m123.308594 35.039062c11.582031 0 20.972656 9.851563 20.972656 22 0 12.152344-9.390625 21.992188-20.972656 21.992188-11.578125 0-20.96875-9.851562-20.96875-21.992188 0-12.140624 9.390625-22 20.96875-22zm0 0" fill="#00efd1"/><path d="m55.171875 35.039062c11.578125 0 20.96875 9.851563 20.96875 22 0 12.152344-9.390625 21.992188-20.96875 21.992188-11.582031 0-20.960937-9.851562-20.960937-21.992188 0-12.140624 9.378906-22 20.960937-22zm0 0" fill="#00efd1"/><g fill="#083863"><path d="m432.550781 0h-393.101562c-21.75 0-39.449219 17.9375-39.449219 40.539062v316.921876c0 22.601562 17.699219 40.539062 39.449219 40.539062h393.101562c21.75 0 39.449219-17.9375 39.449219-40.539062v-316.921876c0-22.601562-17.699219-40.539062-39.449219-40.539062zm23.449219 357.460938c0 13.777343-10.519531 24.539062-23.449219 24.539062h-393.101562c-12.929688 0-23.449219-10.761719-23.449219-24.539062v-244.460938h440zm0-260.460938h-440v-56.460938c0-13.777343 10.519531-24.539062 23.449219-24.539062h393.101562c12.929688 0 23.449219 10.761719 23.449219 24.539062zm0 0"/><path d="m123.308594 27.039062c-15.972656 0-28.96875 13.457032-28.96875 30 0 16.542969 13 29.992188 28.96875 29.992188 15.972656 0 28.972656-13.453125 28.972656-29.992188 0-16.535156-12.996094-30-28.972656-30zm0 43.992188c-7.152344 0-12.96875-6.277344-12.96875-13.992188 0-7.714843 5.816406-14 12.96875-14s12.972656 6.28125 12.972656 14c0 7.722657-5.820312 13.992188-12.972656 13.992188zm0 0"/><path d="m191.449219 27.039062c-15.972657 0-28.96875 13.457032-28.96875 30 0 16.542969 13 29.992188 28.96875 29.992188 15.972656 0 28.960937-13.453125 28.960937-29.992188 0-16.535156-12.992187-30-28.960937-30zm0 43.992188c-7.148438 0-12.96875-6.277344-12.96875-13.992188 0-7.714843 5.820312-14 12.96875-14 7.152343 0 12.960937 6.28125 12.960937 14 0 7.722657-5.808594 13.992188-12.960937 13.992188zm0 0"/><path d="m55.171875 27.039062c-15.972656 0-28.960937 13.457032-28.960937 30 0 16.542969 12.988281 29.992188 28.960937 29.992188 15.96875 0 28.96875-13.453125 28.96875-29.992188 0-16.535156-12.996094-30-28.96875-30zm0 43.992188c-7.148437 0-12.960937-6.277344-12.960937-13.992188 0-7.714843 5.8125-14 12.960937-14 7.144531 0 12.96875 6.28125 12.96875 14 0 7.722657-5.820313 13.992188-12.96875 13.992188zm0 0"/><path d="m138.660156 333h10.511719l4.84375 22.273438c.585937 2.996093 2.84375 5.382812 5.800781 6.140624 2.957032.753907 6.082032-.257812 8.039063-2.601562l22.46875-25.8125h33.664062c10.644531 0 19.011719-8.65625 19.011719-19.601562v-27.398438h1.644531l38.015625 43.535156c1.53125 1.722656 3.738282 2.6875 6.039063 2.644532.671875-.015626 1.335937-.117188 1.980469-.300782 2.910156-.664062 5.175781-2.9375 5.835937-5.847656l8.792969-40.03125h16.730468c16.878907 0 30.960938-14.65625 30.960938-32.128906v-80.859375c0-17.476563-14.082031-32.011719-30.960938-32.011719h-130.539062c-16.878906 0-30.5 14.535156-30.5 32.011719v64.988281h-22.339844c-10.648437 0-19.660156 9.363281-19.660156 20.308594v55.089844c.046875 10.828124 8.832031 19.585937 19.660156 19.601562zm38.339844-159.988281c0-8.652344 6.441406-16.011719 14.5-16.011719h130.539062c8.058594 0 14.960938 7.359375 14.960938 16.011719v80.859375c0 8.648437-6.898438 16.128906-14.960938 16.128906h-23.167968c-3.71875-.097656-6.988282 2.445312-7.816406 6.070312l-6.765626 30.835938-29.960937-34.316406c-1.535156-1.707032-3.742187-2.652344-6.039063-2.589844h-56.789062c-8.058594 0-14.5-7.480469-14.5-16.128906zm-42 85.296875c0-2.121094 1.835938-4.308594 3.660156-4.308594h22.238282c.308593 18 13.910156 32 30.601562 32h35.5v27.398438c0 2.125-1.191406 3.601562-3.011719 3.601562h-37.296875c-2.324218.046875-4.519531 1.089844-6.023437 2.859375l-14.414063 16.550781-2.828125-13.023437c-.792969-3.695313-4.039062-6.34375-7.816406-6.386719h-16.949219c-1.996094-.003906-3.625-1.605469-3.660156-3.601562zm0 0"/><path d="m198.839844 203h67.820312c4.417969 0 8-3.582031 8-8s-3.582031-8-8-8h-67.820312c-4.417969 0-8 3.582031-8 8s3.582031 8 8 8zm0 0"/><path d="m198.839844 239h113.03125c4.417968 0 8-3.582031 8-8s-3.582032-8-8-8h-113.03125c-4.417969 0-8 3.582031-8 8s3.582031 8 8 8zm0 0"/></g></svg>